<!--?xml version="1.0" standalone="no"?-->
              <svg id="sw-js-blob-svg" viewBox="0 0 100 100" xmlns="http://www.w3.org/2000/svg" version="1.1">
                    <defs> 
                        <linearGradient id="sw-gradient" x1="0" x2="1" y1="1" y2="0">
                            <stop id="stop1" stop-color="rgba(248, 117, 55, 1)" offset="0%"></stop>
                            <stop id="stop2" stop-color="rgba(148.568, 17.484, 158.308, 1)" offset="100%"></stop>
                        </linearGradient>
                    </defs>
                <path fill="url(#sw-gradient)" d="M8.4,-15.5C11.3,-13,14.3,-11.5,20.5,-9.1C26.7,-6.7,36.1,-3.3,39.6,2C43.1,7.4,40.7,14.7,35.1,18.1C29.4,21.5,20.5,20.8,14.1,24.3C7.8,27.7,3.9,35.3,-2.1,39C-8.2,42.7,-16.3,42.6,-18.5,36.7C-20.7,30.8,-17,19.2,-19.8,12.1C-22.6,5.1,-32,2.5,-36.1,-2.4C-40.2,-7.3,-39.1,-14.6,-33.3,-16.6C-27.6,-18.6,-17.2,-15.2,-10.9,-15.8C-4.6,-16.3,-2.3,-20.8,0.2,-21.2C2.8,-21.7,5.6,-18.1,8.4,-15.5Z" width="100%" height="100%" transform="translate(50 50)" stroke-width="0" style="transition: 0.3s;"></path>
              </svg>