<svg xmlns="http://www.w3.org/2000/svg" xmlns:xlink="http://www.w3.org/1999/xlink" width="500" zoomAndPan="magnify" viewBox="0 0 375 374.999991" height="500" preserveAspectRatio="xMidYMid meet" version="1.0"><defs><g/><clipPath id="41e336b640"><path d="M 75 119 L 360 119 L 360 165 L 75 165 Z M 75 119 " clip-rule="nonzero"/></clipPath><clipPath id="df4c82d070"><path d="M 72.726562 118.332031 L 356.292969 99.351562 L 360.191406 157.585938 L 76.625 176.566406 Z M 72.726562 118.332031 " clip-rule="nonzero"/></clipPath><clipPath id="37fb1ac79c"><path d="M 76.632812 176.683594 L 360.199219 157.703125 L 356.300781 99.472656 L 72.734375 118.453125 Z M 76.632812 176.683594 " clip-rule="nonzero"/></clipPath><clipPath id="07ba14e8e0"><path d="M 76.632812 176.683594 L 360.199219 157.703125 L 356.300781 99.472656 L 72.734375 118.453125 Z M 76.632812 176.683594 " clip-rule="nonzero"/></clipPath><clipPath id="9131ffeb5e"><path d="M 139 200 L 259 200 L 259 257 L 139 257 Z M 139 200 " clip-rule="nonzero"/></clipPath><clipPath id="a5f59f959a"><path d="M 136.453125 230.171875 L 255.121094 188.996094 L 269.675781 230.949219 L 151.011719 272.125 Z M 136.453125 230.171875 " clip-rule="nonzero"/></clipPath><clipPath id="cd3964483c"><path d="M 136.453125 230.171875 L 255.121094 188.996094 L 269.675781 230.949219 L 151.011719 272.125 Z M 136.453125 230.171875 " clip-rule="nonzero"/></clipPath></defs><rect x="-37.5" width="450" fill="#ffffff" y="-37.499999" height="449.999989" fill-opacity="1"/><rect x="-37.5" width="450" fill="#ffffff" y="-37.499999" height="449.999989" fill-opacity="1"/><g fill="#231f20" fill-opacity="1"><g transform="translate(17.459043, 214.014083)"><g><path d="M 99.515625 -93.125 C 101.097656 -85.1875 102.101562 -75.679688 102.53125 -64.609375 C 102.644531 -56.296875 101.992188 -47.535156 100.578125 -38.328125 C 99.160156 -29.128906 96.601562 -19.929688 92.90625 -10.734375 C 90.5625 -5.328125 87.828125 -0.171875 84.703125 4.734375 C 81.578125 9.648438 77.882812 14.15625 73.625 18.25 C 70.332031 21.488281 66.679688 24.164062 62.671875 26.28125 C 58.253906 28.632812 53.488281 30.03125 48.375 30.46875 C 43.269531 30.914062 38.234375 30.207031 33.265625 28.34375 C 28.296875 26.488281 23.765625 23.285156 19.671875 18.734375 C 15.953125 14.398438 12.890625 9.644531 10.484375 4.46875 C 5.066406 -7.5 1.882812 -20 0.9375 -33.03125 C 0.3125 -40.84375 0.484375 -48.578125 1.453125 -56.234375 C 2.429688 -63.898438 4.335938 -71.441406 7.171875 -78.859375 C 8.316406 -81.953125 9.648438 -84.945312 11.171875 -87.84375 C 12.109375 -89.5625 12.191406 -91.289062 11.421875 -93.03125 C 8.785156 -99.332031 7.210938 -105.890625 6.703125 -112.703125 C 6.273438 -119.316406 7.269531 -125.535156 9.6875 -131.359375 C 12.101562 -137.191406 15.488281 -142.15625 19.84375 -146.25 C 24.195312 -150.351562 29.078125 -153.117188 34.484375 -154.546875 C 47.660156 -157.953125 59.789062 -155.660156 70.875 -147.671875 C 77.75 -142.628906 83.203125 -136.332031 87.234375 -128.78125 C 90.242188 -123.164062 92.726562 -117.378906 94.6875 -111.421875 C 96.65625 -105.460938 98.265625 -99.363281 99.515625 -93.125 Z M 87.5 -16.703125 C 90.070312 -23.953125 91.929688 -31.289062 93.078125 -38.71875 C 94.222656 -46.15625 94.851562 -53.582031 94.96875 -61 C 94.96875 -76.425781 92.863281 -91.359375 88.65625 -105.796875 C 87.3125 -110.265625 85.742188 -114.644531 83.953125 -118.9375 C 82.160156 -123.226562 79.976562 -127.351562 77.40625 -131.3125 C 75.050781 -134.976562 72.332031 -138.269531 69.25 -141.1875 C 66.175781 -144.101562 62.648438 -146.550781 58.671875 -148.53125 C 54.003906 -150.851562 49.34375 -152 44.6875 -151.96875 C 40.039062 -151.9375 35.507812 -150.40625 31.09375 -147.375 C 25.476562 -143.539062 21.253906 -138.914062 18.421875 -133.5 C 15.585938 -128.082031 14.300781 -121.96875 14.5625 -115.15625 C 15.1875 -97.832031 22.046875 -83.398438 35.140625 -71.859375 C 39.316406 -68.160156 43.765625 -64.953125 48.484375 -62.234375 C 53.210938 -59.515625 58.253906 -57.410156 63.609375 -55.921875 C 63.835938 -55.835938 64.082031 -55.765625 64.34375 -55.703125 C 64.863281 -55.648438 65.359375 -55.53125 65.828125 -55.34375 C 66.296875 -55.15625 66.71875 -54.878906 67.09375 -54.515625 C 67.289062 -54.304688 67.429688 -54.054688 67.515625 -53.765625 C 67.609375 -53.484375 67.65625 -53.21875 67.65625 -52.96875 C 67.59375 -52.789062 67.484375 -52.570312 67.328125 -52.3125 C 67.171875 -52.0625 66.992188 -51.878906 66.796875 -51.765625 C 65.734375 -51.191406 64.671875 -51.160156 63.609375 -51.671875 C 61.890625 -52.472656 60.113281 -53.101562 58.28125 -53.5625 C 57.96875 -53.625 57.695312 -53.679688 57.46875 -53.734375 C 41.257812 -58.085938 28.21875 -66.960938 18.34375 -80.359375 C 18.195312 -80.566406 18.066406 -80.769531 17.953125 -80.96875 C 17.753906 -81.394531 17.492188 -81.75 17.171875 -82.03125 C 16.859375 -82.320312 16.460938 -82.394531 15.984375 -82.25 C 15.609375 -82.195312 15.34375 -82.023438 15.1875 -81.734375 C 15.03125 -81.453125 14.90625 -81.125 14.8125 -80.75 C 14.757812 -80.488281 14.675781 -80.273438 14.5625 -80.109375 C 14.363281 -79.648438 14.207031 -79.175781 14.09375 -78.6875 C 14.03125 -78.488281 13.925781 -78.257812 13.78125 -78 C 9.832031 -66.664062 7.789062 -55.3125 7.65625 -43.9375 C 7.53125 -32.570312 9.171875 -21.160156 12.578125 -9.703125 C 13.753906 -5.609375 15.207031 -1.660156 16.9375 2.140625 C 18.675781 5.953125 20.773438 9.59375 23.234375 13.0625 C 26.128906 17.15625 29.722656 20.503906 34.015625 23.109375 C 40.203125 26.890625 46.691406 27.519531 53.484375 25 C 57.398438 23.425781 60.992188 21.304688 64.265625 18.640625 C 67.410156 16.066406 70.242188 13.203125 72.765625 10.046875 C 75.972656 6.015625 78.789062 1.75 81.21875 -2.75 C 83.65625 -7.25 85.75 -11.898438 87.5 -16.703125 Z M 87.5 -16.703125 "/></g></g></g><g fill="#231f20" fill-opacity="1"><g transform="translate(125.905576, 214.014083)"><g><path d="M 32.6875 -21.125 C 34 -21.445312 35.703125 -22.363281 37.796875 -23.875 C 39.890625 -25.394531 40.832031 -25.425781 40.625 -23.96875 C 40.425781 -22.507812 39.289062 -21.289062 37.21875 -20.3125 C 35.144531 -19.34375 33.234375 -18.644531 31.484375 -18.21875 C 31.023438 -18.070312 30.570312 -17.828125 30.125 -17.484375 C 29.6875 -17.140625 29.410156 -16.753906 29.296875 -16.328125 C 28.984375 -14.492188 28.351562 -12.785156 27.40625 -11.203125 C 24.9375 -7.367188 21.441406 -5.851562 16.921875 -6.65625 C 15.148438 -7.113281 14.007812 -7.984375 13.5 -9.265625 C 13 -10.554688 13.253906 -11.992188 14.265625 -13.578125 C 15.660156 -15.410156 17.390625 -16.769531 19.453125 -17.65625 C 20.234375 -18.03125 20.9375 -18.300781 21.5625 -18.46875 C 21.875 -18.613281 22.242188 -18.742188 22.671875 -18.859375 C 23.503906 -19.316406 23.945312 -20.1875 24 -21.46875 C 24.0625 -22.757812 23.765625 -24.050781 23.109375 -25.34375 C 22.453125 -26.632812 21.535156 -27.515625 20.359375 -27.984375 C 19.179688 -28.453125 17.78125 -28.03125 16.15625 -26.71875 C 14.570312 -25.257812 13.378906 -23.554688 12.578125 -21.609375 C 10.691406 -17.710938 9.390625 -13.617188 8.671875 -9.328125 C 7.410156 -1.765625 6.539062 5.796875 6.0625 13.359375 C 5.851562 16.878906 5.507812 20.375 5.03125 23.84375 C 4.820312 25.300781 4.660156 26.789062 4.546875 28.3125 C 4.460938 28.789062 4.335938 29.289062 4.171875 29.8125 C 3.910156 30.757812 3.207031 31.160156 2.0625 31.015625 C 0.882812 30.953125 0.253906 30.421875 0.171875 29.421875 C 0.109375 28.359375 0.109375 27.285156 0.171875 26.203125 C 0.171875 25.941406 0.171875 25.726562 0.171875 25.5625 C 0.253906 24.238281 0.328125 22.90625 0.390625 21.5625 C 0.441406 19.1875 0.5 16.820312 0.5625 14.46875 C 0.695312 4.90625 0.640625 -4.726562 0.390625 -14.4375 C 0.328125 -18.070312 0.253906 -21.664062 0.171875 -25.21875 C 0.171875 -25.582031 0.171875 -25.953125 0.171875 -26.328125 C 0.0546875 -27.585938 0.125 -28.816406 0.375 -30.015625 C 0.632812 -31.222656 1.425781 -31.914062 2.75 -32.09375 C 4.125 -32.226562 4.96875 -31.597656 5.28125 -30.203125 C 5.28125 -30.085938 5.28125 -29.957031 5.28125 -29.8125 C 5.738281 -27.113281 6.15625 -23.5625 6.53125 -19.15625 C 7.53125 -22.101562 8.785156 -24.476562 10.296875 -26.28125 C 11.816406 -28.09375 13.609375 -29.425781 15.671875 -30.28125 C 17.390625 -31.050781 19.15625 -31.359375 20.96875 -31.203125 C 22.789062 -31.046875 24.445312 -30.300781 25.9375 -28.96875 C 27.425781 -27.632812 28.445312 -25.648438 29 -23.015625 C 29.25 -21.878906 29.597656 -21.203125 30.046875 -20.984375 C 30.492188 -20.765625 31.375 -20.8125 32.6875 -21.125 Z M 19.84375 -9.40625 C 20.988281 -10.039062 21.875 -10.878906 22.5 -11.921875 C 23.132812 -12.960938 23.460938 -13.875 23.484375 -14.65625 C 23.515625 -15.445312 23.1875 -15.742188 22.5 -15.546875 C 20.726562 -14.859375 19.515625 -13.960938 18.859375 -12.859375 C 18.203125 -11.753906 17.976562 -10.804688 18.1875 -10.015625 C 18.40625 -9.234375 18.957031 -9.03125 19.84375 -9.40625 Z M 19.84375 -9.40625 "/></g></g></g><g fill="#231f20" fill-opacity="1"><g transform="translate(164.001454, 214.014083)"><g><path d="M 42.09375 -20.84375 C 44.53125 -23.550781 45.8125 -24.585938 45.9375 -23.953125 C 46.0625 -23.328125 45.535156 -21.863281 44.359375 -19.5625 C 43.191406 -17.257812 41.378906 -15.289062 38.921875 -13.65625 C 37.109375 -12.539062 35.550781 -11.789062 34.25 -11.40625 C 32.945312 -11.019531 31.769531 -10.796875 30.71875 -10.734375 C 28.625 -10.617188 27.023438 -11.21875 25.921875 -12.53125 C 24.816406 -13.851562 24.050781 -15.550781 23.625 -17.625 C 23.195312 -19.707031 22.878906 -21.847656 22.671875 -24.046875 C 22.472656 -25.453125 22.289062 -26.710938 22.125 -27.828125 C 21.863281 -29.609375 21.351562 -30.59375 20.59375 -30.78125 C 19.832031 -30.96875 18.664062 -29.828125 17.09375 -27.359375 C 15.457031 -24.722656 14.023438 -21.816406 12.796875 -18.640625 C 11.566406 -15.460938 10.476562 -12.359375 9.53125 -9.328125 C 9.476562 -9.210938 9.421875 -9.050781 9.359375 -8.84375 C 9.160156 -8.414062 9.003906 -7.972656 8.890625 -7.515625 C 8.515625 -6.253906 8.070312 -5.023438 7.5625 -3.828125 C 7.132812 -2.816406 6.394531 -2.15625 5.34375 -1.84375 C 4.300781 -1.53125 3.207031 -1.601562 2.0625 -2.0625 C 1.3125 -2.375 0.8125 -2.90625 0.5625 -3.65625 C 0.1875 -4.800781 0.0546875 -5.957031 0.171875 -7.125 C 0.171875 -7.269531 0.171875 -7.375 0.171875 -7.4375 C 0.429688 -12.414062 0.472656 -20.703125 0.296875 -32.296875 C 0.148438 -41.546875 0.078125 -51.492188 0.078125 -62.140625 C 0.078125 -72.796875 0.347656 -82.847656 0.890625 -92.296875 C 1.441406 -101.753906 2.375 -109.316406 3.6875 -114.984375 C 4.257812 -117.046875 5.203125 -118.898438 6.515625 -120.546875 C 7.835938 -122.191406 9.300781 -123.09375 10.90625 -123.25 C 12.507812 -123.40625 14.015625 -122.3125 15.421875 -119.96875 C 16.367188 -117.96875 16.957031 -115.832031 17.1875 -113.5625 C 17.8125 -106.863281 17.242188 -96.570312 15.484375 -82.6875 C 13.722656 -68.800781 11.882812 -56.644531 9.96875 -46.21875 C 8.050781 -35.789062 7.09375 -27.085938 7.09375 -20.109375 C 7.71875 -21.160156 8.347656 -22.289062 8.984375 -23.5 C 9.867188 -25.269531 10.859375 -27.035156 11.953125 -28.796875 C 13.054688 -30.554688 14.359375 -32.050781 15.859375 -33.28125 C 17.367188 -34.519531 19.195312 -35.296875 21.34375 -35.609375 C 22.800781 -35.835938 24.28125 -35.734375 25.78125 -35.296875 C 27.289062 -34.867188 28.304688 -33.828125 28.828125 -32.171875 C 29.453125 -29.273438 29.664062 -26.195312 29.46875 -22.9375 C 29.46875 -19.46875 30.066406 -17.273438 31.265625 -16.359375 C 32.472656 -15.441406 33.96875 -15.285156 35.75 -15.890625 C 37.539062 -16.492188 39.65625 -18.144531 42.09375 -20.84375 Z M 10.015625 -109.65625 C 9.691406 -106.082031 9.328125 -100.101562 8.921875 -91.71875 C 8.523438 -83.34375 8.179688 -74.945312 7.890625 -66.53125 C 7.609375 -58.113281 7.46875 -51.113281 7.46875 -45.53125 C 8.15625 -50.570312 8.984375 -57.132812 9.953125 -65.21875 C 10.929688 -73.3125 11.800781 -81.640625 12.5625 -90.203125 C 13.320312 -98.765625 13.703125 -105.191406 13.703125 -109.484375 C 13.640625 -111.742188 13.476562 -113.425781 13.21875 -114.53125 C 12.96875 -115.632812 12.539062 -116.03125 11.9375 -115.71875 C 11.332031 -115.40625 10.875 -114.601562 10.5625 -113.3125 C 10.25 -112.019531 10.066406 -110.800781 10.015625 -109.65625 Z M 10.015625 -109.65625 "/></g></g></g><g fill="#231f20" fill-opacity="1"><g transform="translate(207.59482, 214.014083)"><g><path d="M 41.40625 -20.75 C 42.039062 -21.125 42.65625 -21.410156 43.25 -21.609375 C 43.851562 -21.804688 44.25 -21.789062 44.4375 -21.5625 C 44.625 -21.332031 44.375 -20.816406 43.6875 -20.015625 C 41.539062 -17.554688 38.96875 -15.300781 35.96875 -13.25 C 32.976562 -11.207031 29.910156 -9.484375 26.765625 -8.078125 C 24.296875 -6.960938 21.691406 -6.070312 18.953125 -5.40625 C 16.222656 -4.75 13.519531 -4.609375 10.84375 -4.984375 C 8.164062 -5.359375 5.722656 -6.546875 3.515625 -8.546875 C 0.171875 -11.640625 -1.210938 -15.421875 -0.640625 -19.890625 C -0.160156 -23.441406 1.21875 -26.453125 3.5 -28.921875 C 5.78125 -31.398438 8.648438 -33.082031 12.109375 -33.96875 C 15.003906 -34.601562 17.898438 -34.675781 20.796875 -34.1875 C 22.109375 -33.988281 23.304688 -33.546875 24.390625 -32.859375 C 25.398438 -32.085938 25.953125 -31.1875 26.046875 -30.15625 C 26.148438 -29.125 25.757812 -28.132812 24.875 -27.1875 C 23.039062 -25.550781 20.921875 -24.578125 18.515625 -24.265625 C 15.816406 -23.804688 13.109375 -23.519531 10.390625 -23.40625 C 9.078125 -23.40625 8.15625 -23.132812 7.625 -22.59375 C 7.09375 -22.050781 6.785156 -21.117188 6.703125 -19.796875 C 6.273438 -16.222656 7.421875 -13.300781 10.140625 -11.03125 C 11.828125 -9.6875 13.878906 -9.113281 16.296875 -9.3125 C 18.722656 -9.519531 21.296875 -10.171875 24.015625 -11.265625 C 26.734375 -12.367188 29.394531 -13.660156 32 -15.140625 C 34.601562 -16.617188 36.953125 -18.015625 39.046875 -19.328125 C 39.929688 -19.898438 40.71875 -20.375 41.40625 -20.75 Z M 11.546875 -28.390625 C 11.546875 -28.335938 11.503906 -28.3125 11.421875 -28.3125 C 11.304688 -28.195312 11.15625 -28.054688 10.96875 -27.890625 C 10.789062 -27.734375 10.617188 -27.578125 10.453125 -27.421875 C 10.296875 -27.265625 10.21875 -27.160156 10.21875 -27.109375 C 10.28125 -26.898438 10.796875 -26.847656 11.765625 -26.953125 C 12.742188 -27.054688 13.816406 -27.226562 14.984375 -27.46875 C 16.160156 -27.707031 17.140625 -28.035156 17.921875 -28.453125 C 18.710938 -28.867188 18.953125 -29.363281 18.640625 -29.9375 C 18.492188 -30.113281 18.3125 -30.265625 18.09375 -30.390625 C 17.882812 -30.515625 17.648438 -30.609375 17.390625 -30.671875 C 16.242188 -30.671875 15.195312 -30.445312 14.25 -30 C 13.3125 -29.5625 12.410156 -29.023438 11.546875 -28.390625 Z M 22.984375 -50.8125 C 23.296875 -51.300781 23.71875 -51.609375 24.25 -51.734375 C 24.78125 -51.867188 25.332031 -51.90625 25.90625 -51.84375 C 26.019531 -51.84375 26.117188 -51.84375 26.203125 -51.84375 C 26.429688 -51.789062 26.675781 -51.765625 26.9375 -51.765625 C 28.25 -51.441406 28.984375 -50.992188 29.140625 -50.421875 C 29.296875 -49.847656 29.140625 -49.242188 28.671875 -48.609375 C 28.203125 -47.984375 27.691406 -47.429688 27.140625 -46.953125 C 25.796875 -45.484375 24.492188 -43.804688 23.234375 -41.921875 C 22.117188 -40.347656 21.128906 -39.101562 20.265625 -38.1875 C 19.410156 -37.269531 18.769531 -37.15625 18.34375 -37.84375 C 17.820312 -38.238281 17.546875 -38.6875 17.515625 -39.1875 C 17.492188 -39.695312 17.582031 -40.238281 17.78125 -40.8125 C 18.15625 -42.4375 18.734375 -43.957031 19.515625 -45.375 C 20.304688 -46.789062 21.175781 -48.1875 22.125 -49.5625 C 22.375 -50.019531 22.660156 -50.4375 22.984375 -50.8125 Z M 22.984375 -50.8125 "/></g></g></g><g fill="#231f20" fill-opacity="1"><g transform="translate(249.169567, 214.014083)"><g><path d="M 31.015625 -20.015625 C 31.503906 -21.191406 32.03125 -21.78125 32.59375 -21.78125 C 33.164062 -21.78125 33.351562 -21.191406 33.15625 -20.015625 C 32.21875 -17.097656 31.085938 -14.300781 29.765625 -11.625 C 28.453125 -8.945312 26.660156 -6.546875 24.390625 -4.421875 C 22.679688 -2.703125 20.632812 -1.597656 18.25 -1.109375 C 15.019531 -0.648438 12.351562 -1.035156 10.25 -2.265625 C 8.144531 -3.503906 6.472656 -5.273438 5.234375 -7.578125 C 4.003906 -9.878906 3.085938 -12.398438 2.484375 -15.140625 C 1.890625 -17.878906 1.503906 -20.535156 1.328125 -23.109375 C 0.867188 -27.972656 0.53125 -34.367188 0.3125 -42.296875 C 0.101562 -50.234375 0.179688 -58.625 0.546875 -67.46875 C 0.921875 -76.320312 1.789062 -84.53125 3.15625 -92.09375 C 4.519531 -99.65625 6.519531 -105.507812 9.15625 -109.65625 C 10.664062 -111.6875 12.429688 -112.71875 14.453125 -112.75 C 16.472656 -112.78125 18.269531 -111.851562 19.84375 -109.96875 C 20.90625 -108.5 21.707031 -106.945312 22.25 -105.3125 C 22.789062 -103.6875 23.148438 -102.03125 23.328125 -100.34375 C 23.898438 -94.53125 23.828125 -88.394531 23.109375 -81.9375 C 22.390625 -75.476562 21.253906 -68.582031 19.703125 -61.25 C 18.160156 -53.914062 16.316406 -47.457031 14.171875 -41.875 C 12.023438 -36.289062 10.238281 -31.867188 8.8125 -28.609375 C 8.03125 -27.285156 7.742188 -25.296875 7.953125 -22.640625 C 8.203125 -19.742188 8.75 -16.71875 9.59375 -13.5625 C 10.445312 -10.414062 11.628906 -7.925781 13.140625 -6.09375 C 14.578125 -4.582031 16.179688 -4.113281 17.953125 -4.6875 C 19.734375 -5.257812 21.503906 -6.457031 23.265625 -8.28125 C 25.023438 -10.113281 26.578125 -12.113281 27.921875 -14.28125 C 29.265625 -16.445312 30.296875 -18.359375 31.015625 -20.015625 Z M 8.125 -63.953125 C 7.945312 -62.066406 7.78125 -59.210938 7.625 -55.390625 C 7.46875 -51.566406 7.316406 -47.679688 7.171875 -43.734375 C 7.054688 -39.316406 6.925781 -35.878906 6.78125 -33.421875 C 8.1875 -36.566406 9.816406 -41.144531 11.671875 -47.15625 C 13.535156 -53.175781 15.234375 -60.265625 16.765625 -68.421875 C 18.304688 -76.585938 19.304688 -85.421875 19.765625 -94.921875 C 19.503906 -100.484375 18.835938 -104.25 17.765625 -106.21875 C 16.691406 -108.195312 15.523438 -108.367188 14.265625 -106.734375 C 13.003906 -105.109375 12 -101.675781 11.25 -96.4375 C 10.101562 -87.757812 9.21875 -79.066406 8.59375 -70.359375 C 8.414062 -68.210938 8.257812 -66.078125 8.125 -63.953125 Z M 8.125 -63.953125 "/></g></g></g><g fill="#231f20" fill-opacity="1"><g transform="translate(279.7064, 214.014083)"><g><path d="M 22.296875 -17.4375 C 21.410156 -15.601562 19.898438 -13.566406 17.765625 -11.328125 C 15.628906 -9.097656 13.207031 -7.679688 10.5 -7.078125 C 7.789062 -6.484375 5.207031 -7.414062 2.75 -9.875 C 1.800781 -10.96875 1.101562 -12.222656 0.65625 -13.640625 C 0.21875 -15.054688 0.0546875 -16.453125 0.171875 -17.828125 C 0.171875 -18.203125 0.171875 -18.675781 0.171875 -19.25 C 0.171875 -20.707031 0.234375 -22.394531 0.359375 -24.3125 C 0.492188 -26.226562 0.78125 -27.957031 1.21875 -29.5 C 1.664062 -31.050781 2.363281 -31.984375 3.3125 -32.296875 C 6.03125 -32.984375 7.503906 -32.039062 7.734375 -29.46875 C 7.734375 -28.632812 7.703125 -27.800781 7.640625 -26.96875 C 7.585938 -26.539062 7.5625 -26.140625 7.5625 -25.765625 C 7.5 -24.566406 7.441406 -23.363281 7.390625 -22.15625 C 7.390625 -21.21875 7.347656 -20.273438 7.265625 -19.328125 C 7.203125 -15.171875 8.128906 -12.695312 10.046875 -11.90625 C 11.960938 -11.125 14.148438 -11.960938 16.609375 -14.421875 C 19.078125 -16.890625 20.691406 -18.9375 21.453125 -20.5625 C 22.210938 -22.195312 22.765625 -22.539062 23.109375 -21.59375 C 23.453125 -20.65625 23.179688 -19.269531 22.296875 -17.4375 Z M 7.171875 -41.15625 C 6.796875 -40.832031 6.34375 -40.628906 5.8125 -40.546875 C 5.289062 -40.460938 4.828125 -40.503906 4.421875 -40.671875 C 4.109375 -40.929688 3.90625 -41.269531 3.8125 -41.6875 C 3.726562 -42.101562 3.6875 -42.597656 3.6875 -43.171875 C 3.6875 -43.285156 3.71875 -43.398438 3.78125 -43.515625 C 3.832031 -44.023438 3.960938 -44.539062 4.171875 -45.0625 C 4.742188 -46.4375 5.929688 -47.066406 7.734375 -46.953125 C 8.359375 -46.859375 8.847656 -46.597656 9.203125 -46.171875 C 9.566406 -45.742188 9.648438 -45.242188 9.453125 -44.671875 C 9.023438 -43.265625 8.265625 -42.09375 7.171875 -41.15625 Z M 7.171875 -41.15625 "/></g></g></g><g fill="#231f20" fill-opacity="1"><g transform="translate(300.794427, 214.014083)"><g><path d="M 48.59375 -22.078125 C 47.8125 -19.671875 46.253906 -16.914062 43.921875 -13.8125 C 41.585938 -10.707031 38.671875 -8.707031 35.171875 -7.8125 C 31.679688 -6.925781 28.660156 -7.046875 26.109375 -8.171875 C 23.566406 -9.304688 22.164062 -12.335938 21.90625 -17.265625 C 19.007812 -11.648438 16.25 -8.054688 13.625 -6.484375 C 11.007812 -4.910156 8.285156 -4.3125 5.453125 -4.6875 C 2.242188 -5.195312 0.078125 -6.4375 -1.046875 -8.40625 C -2.179688 -10.382812 -2.5625 -12.671875 -2.1875 -15.265625 C -1.8125 -17.859375 -1.023438 -20.34375 0.171875 -22.71875 C 1.117188 -24.5 2.425781 -26.144531 4.09375 -27.65625 C 5.769531 -29.175781 7.523438 -30.367188 9.359375 -31.234375 C 11.617188 -32.378906 13.894531 -32.921875 16.1875 -32.859375 C 18.476562 -32.804688 20.925781 -32.046875 23.53125 -30.578125 C 23.59375 -30.523438 23.625 -30.582031 23.625 -30.75 C 23.625 -31.007812 23.6875 -31.332031 23.8125 -31.71875 C 23.945312 -32.101562 24.171875 -32.410156 24.484375 -32.640625 C 25.335938 -33.273438 26.351562 -33.59375 27.53125 -33.59375 C 28.707031 -33.59375 29.609375 -33.003906 30.234375 -31.828125 C 30.347656 -30.304688 30.191406 -28.375 29.765625 -26.03125 C 28.816406 -20.875 28.816406 -17.164062 29.765625 -14.90625 C 30.710938 -12.644531 32.378906 -11.59375 34.765625 -11.75 C 37.160156 -11.90625 40.257812 -14.265625 44.0625 -18.828125 C 47.875 -23.398438 49.382812 -24.484375 48.59375 -22.078125 Z M 6.3125 -9.96875 C 7.632812 -9.019531 9.144531 -9.144531 10.84375 -10.34375 C 12.550781 -11.550781 14.191406 -13.253906 15.765625 -15.453125 C 17.335938 -17.660156 18.660156 -19.867188 19.734375 -22.078125 C 20.804688 -24.285156 21.398438 -25.914062 21.515625 -26.96875 C 18.304688 -28.6875 15.554688 -28.976562 13.265625 -27.84375 C 10.984375 -26.71875 9.160156 -24.875 7.796875 -22.3125 C 6.429688 -19.75 5.617188 -17.253906 5.359375 -14.828125 C 5.109375 -12.410156 5.425781 -10.789062 6.3125 -9.96875 Z M 6.3125 -9.96875 "/></g></g></g><g clip-path="url(#41e336b640)"><g clip-path="url(#df4c82d070)"><g clip-path="url(#37fb1ac79c)"><g clip-path="url(#07ba14e8e0)"><path fill="#231f20" d="M 78.457031 140.800781 C 77.769531 140.074219 76.625 140.035156 75.894531 140.71875 C 75.164062 141.402344 75.125 142.542969 75.808594 143.273438 C 80.074219 147.808594 83.835938 151.28125 87.84375 154.050781 L 87.957031 154.121094 C 91.953125 156.871094 96.152344 158.890625 101.269531 160.535156 C 134.082031 171.082031 177.398438 156.882812 219.628906 143.039062 C 278.332031 123.792969 334.898438 105.246094 355.574219 156.527344 C 355.945312 157.449219 357 157.90625 357.933594 157.53125 C 358.863281 157.164062 359.316406 156.109375 358.941406 155.183594 C 337 100.769531 278.855469 119.828125 218.507812 139.617188 C 176.824219 153.285156 134.070312 167.300781 102.371094 157.113281 C 97.601562 155.578125 93.699219 153.703125 90.011719 151.167969 L 89.90625 151.089844 C 86.15625 148.492188 82.566406 145.175781 78.460938 140.808594 Z M 78.457031 140.800781 " fill-opacity="1" fill-rule="evenodd"/></g></g></g></g><g clip-path="url(#9131ffeb5e)"><g clip-path="url(#a5f59f959a)"><g clip-path="url(#cd3964483c)"><path fill="#231f20" d="M 185.6875 244.296875 C 182.632812 244.710938 181.992188 240.261719 185.046875 239.847656 C 185.34375 239.808594 185.644531 239.765625 185.941406 239.726562 C 188.996094 239.3125 189.632812 243.761719 186.578125 244.175781 C 186.28125 244.214844 185.984375 244.253906 185.6875 244.296875 Z M 215.523438 234.03125 C 215.652344 233.871094 215.78125 233.710938 215.910156 233.550781 C 217.777344 231.238281 213.976562 228.542969 212.109375 230.859375 C 211.980469 231.019531 211.851562 231.179688 211.722656 231.339844 C 209.855469 233.65625 213.65625 236.351562 215.523438 234.03125 Z M 244.847656 230.488281 C 247.296875 232.21875 250.199219 228.625 247.746094 226.890625 C 245.300781 225.15625 242.398438 228.753906 244.847656 230.488281 Z M 151.375 230.558594 C 151.671875 230.515625 151.972656 230.476562 152.269531 230.4375 C 155.324219 230.023438 154.683594 225.574219 151.628906 225.988281 C 151.332031 226.027344 151.035156 226.070312 150.738281 226.109375 C 147.683594 226.523438 148.320312 230.972656 151.375 230.558594 Z M 201.882812 251.21875 C 202.050781 251.339844 202.21875 251.457031 202.390625 251.578125 C 203.878906 252.632812 206.308594 252.402344 207.414062 250.898438 C 208.523438 249.386719 208.335938 247.308594 206.738281 246.179688 C 206.570312 246.058594 206.398438 245.9375 206.230469 245.820312 C 204.738281 244.761719 202.308594 244.992188 201.203125 246.5 C 200.097656 248.011719 200.285156 250.085938 201.882812 251.21875 Z M 248.984375 214.484375 C 252.652344 217.082031 257.007812 211.6875 253.332031 209.085938 C 249.660156 206.484375 245.308594 211.878906 248.984375 214.484375 Z M 232.464844 225.433594 C 232.421875 225.152344 232.382812 224.871094 232.34375 224.59375 C 232.136719 223.160156 229.765625 223.480469 229.972656 224.914062 C 230.011719 225.195312 230.054688 225.472656 230.09375 225.753906 C 230.300781 227.1875 232.667969 226.867188 232.464844 225.433594 Z M 256.253906 202.488281 C 257.480469 203.355469 258.929688 201.554688 257.703125 200.6875 C 256.480469 199.824219 255.03125 201.621094 256.253906 202.488281 Z M 158.398438 225.148438 C 159.621094 226.011719 161.074219 224.214844 159.847656 223.347656 C 158.625 222.480469 157.171875 224.28125 158.398438 225.148438 Z M 165.117188 231.507812 C 165.246094 231.347656 165.375 231.1875 165.503906 231.027344 C 166.4375 229.867188 164.539062 228.519531 163.605469 229.679688 C 163.476562 229.839844 163.347656 230 163.21875 230.160156 C 162.285156 231.316406 164.183594 232.664062 165.117188 231.507812 Z M 189.660156 252.554688 C 190.886719 253.417969 192.335938 251.621094 191.113281 250.753906 C 189.886719 249.886719 188.4375 251.683594 189.660156 252.554688 Z M 200.097656 239.59375 C 201.320312 240.460938 202.773438 238.664062 201.546875 237.796875 C 200.324219 236.929688 198.871094 238.726562 200.097656 239.59375 Z M 171.910156 255.8125 C 173.136719 256.679688 174.585938 254.878906 173.363281 254.011719 C 172.136719 253.144531 170.6875 254.945312 171.910156 255.8125 Z M 141.863281 237.648438 C 141.992188 237.488281 142.121094 237.328125 142.25 237.167969 C 143.179688 236.011719 141.28125 234.664062 140.347656 235.824219 C 140.21875 235.984375 140.089844 236.144531 139.960938 236.304688 C 139.027344 237.460938 140.925781 238.808594 141.863281 237.648438 Z M 154.21875 237.257812 C 155.441406 238.125 156.890625 236.324219 155.667969 235.457031 C 154.441406 234.59375 152.992188 236.390625 154.21875 237.257812 Z M 179.09375 220.207031 C 180.320312 221.074219 181.769531 219.273438 180.542969 218.40625 C 179.320312 217.542969 177.871094 219.339844 179.09375 220.207031 Z M 176.3125 232.554688 C 177.539062 233.421875 178.988281 231.621094 177.765625 230.753906 C 176.539062 229.890625 175.089844 231.6875 176.3125 232.554688 Z M 254.050781 222.027344 C 255.273438 222.894531 256.726562 221.09375 255.5 220.226562 C 254.277344 219.363281 252.828125 221.160156 254.050781 222.027344 Z M 254.050781 222.027344 " fill-opacity="1" fill-rule="nonzero"/></g></g></g><g fill="#231f20" fill-opacity="1"><g transform="translate(189.141339, 233.576904)"><g><path d="M 9.96875 -10.6875 L 5.96875 -10.6875 L 5.96875 0 L 4.359375 0 L 4.359375 -10.6875 L 0.375 -10.6875 L 0.375 -12.109375 L 9.96875 -12.109375 Z M 9.96875 -10.6875 "/></g></g></g><g fill="#231f20" fill-opacity="1"><g transform="translate(210.299995, 233.576904)"><g><path d="M 3.1875 0 L 1.5 0 L 1.5 -1.6875 L 3.1875 -1.6875 Z M 3.1875 0 "/></g></g></g><g fill="#231f20" fill-opacity="1"><g transform="translate(225.82764, 233.576904)"><g><path d="M 2.875 -1.421875 L 8.84375 -1.421875 L 8.84375 0 L 1.265625 0 L 1.265625 -12.109375 L 2.875 -12.109375 Z M 2.875 -1.421875 "/></g></g></g><g fill="#231f20" fill-opacity="1"><g transform="translate(246.056263, 233.576904)"><g><path d="M 3.1875 0 L 1.5 0 L 1.5 -1.6875 L 3.1875 -1.6875 Z M 3.1875 0 "/></g></g></g></svg>