<svg xmlns="http://www.w3.org/2000/svg" xmlns:xlink="http://www.w3.org/1999/xlink" width="500" zoomAndPan="magnify" viewBox="0 0 375 374.999991" height="500" preserveAspectRatio="xMidYMid meet" version="1.0"><defs><g/><clipPath id="84043b2845"><path d="M 120 156 L 289 156 L 289 183 L 120 183 Z M 120 156 " clip-rule="nonzero"/></clipPath><clipPath id="475200517e"><path d="M 119.195312 155.59375 L 286.820312 144.371094 L 289.125 178.796875 L 121.5 190.015625 Z M 119.195312 155.59375 " clip-rule="nonzero"/></clipPath><clipPath id="809842fca6"><path d="M 121.503906 190.085938 L 289.128906 178.867188 L 286.824219 144.441406 L 119.199219 155.664062 Z M 121.503906 190.085938 " clip-rule="nonzero"/></clipPath><clipPath id="568f84b74b"><path d="M 121.503906 190.085938 L 289.128906 178.867188 L 286.824219 144.441406 L 119.199219 155.664062 Z M 121.503906 190.085938 " clip-rule="nonzero"/></clipPath><clipPath id="0b00d5b757"><path d="M 158 204 L 229 204 L 229 237 L 158 237 Z M 158 204 " clip-rule="nonzero"/></clipPath><clipPath id="0350a4a2b2"><path d="M 156.867188 221.707031 L 227.015625 197.363281 L 235.621094 222.164062 L 165.472656 246.503906 Z M 156.867188 221.707031 " clip-rule="nonzero"/></clipPath><clipPath id="02fd914ff2"><path d="M 156.867188 221.707031 L 227.015625 197.363281 L 235.621094 222.164062 L 165.472656 246.503906 Z M 156.867188 221.707031 " clip-rule="nonzero"/></clipPath></defs><rect x="-37.5" width="450" fill="#ffffff" y="-37.499999" height="449.999989" fill-opacity="1"/><rect x="-37.5" width="450" fill="#ffffff" y="-37.499999" height="449.999989" fill-opacity="1"/><g fill="#231f20" fill-opacity="1"><g transform="translate(86.525001, 212.153511)"><g><path d="M 58.828125 -55.046875 C 59.765625 -50.359375 60.359375 -44.738281 60.609375 -38.1875 C 60.671875 -33.28125 60.285156 -28.101562 59.453125 -22.65625 C 58.617188 -17.21875 57.109375 -11.78125 54.921875 -6.34375 C 53.535156 -3.144531 51.914062 -0.0976562 50.0625 2.796875 C 48.21875 5.703125 46.035156 8.367188 43.515625 10.796875 C 41.566406 12.703125 39.410156 14.285156 37.046875 15.546875 C 34.441406 16.929688 31.628906 17.753906 28.609375 18.015625 C 25.585938 18.273438 22.609375 17.851562 19.671875 16.75 C 16.734375 15.65625 14.050781 13.765625 11.625 11.078125 C 9.425781 8.515625 7.617188 5.703125 6.203125 2.640625 C 2.992188 -4.429688 1.113281 -11.820312 0.5625 -19.53125 C 0.1875 -24.144531 0.285156 -28.71875 0.859375 -33.25 C 1.441406 -37.78125 2.566406 -42.238281 4.234375 -46.625 C 4.910156 -48.445312 5.703125 -50.210938 6.609375 -51.921875 C 7.160156 -52.941406 7.207031 -53.96875 6.75 -55 C 5.195312 -58.71875 4.269531 -62.59375 3.96875 -66.625 C 3.707031 -70.53125 4.289062 -74.207031 5.71875 -77.65625 C 7.15625 -81.101562 9.160156 -84.035156 11.734375 -86.453125 C 14.304688 -88.878906 17.191406 -90.515625 20.390625 -91.359375 C 28.171875 -93.367188 35.335938 -92.015625 41.890625 -87.296875 C 45.953125 -84.316406 49.175781 -80.59375 51.5625 -76.125 C 53.34375 -72.800781 54.8125 -69.378906 55.96875 -65.859375 C 57.132812 -62.335938 58.085938 -58.734375 58.828125 -55.046875 Z M 51.71875 -9.875 C 53.238281 -14.15625 54.335938 -18.492188 55.015625 -22.890625 C 55.691406 -27.285156 56.066406 -31.675781 56.140625 -36.0625 C 56.140625 -45.175781 54.894531 -54 52.40625 -62.53125 C 51.613281 -65.175781 50.6875 -67.765625 49.625 -70.296875 C 48.570312 -72.835938 47.28125 -75.28125 45.75 -77.625 C 44.363281 -79.789062 42.757812 -81.734375 40.9375 -83.453125 C 39.125 -85.179688 37.039062 -86.628906 34.6875 -87.796875 C 31.925781 -89.171875 29.171875 -89.847656 26.421875 -89.828125 C 23.671875 -89.816406 20.992188 -88.910156 18.390625 -87.109375 C 15.066406 -84.847656 12.566406 -82.113281 10.890625 -78.90625 C 9.210938 -75.707031 8.453125 -72.097656 8.609375 -68.078125 C 8.984375 -57.835938 13.035156 -49.304688 20.765625 -42.484375 C 23.242188 -40.296875 25.878906 -38.394531 28.671875 -36.78125 C 31.460938 -35.175781 34.441406 -33.9375 37.609375 -33.0625 C 37.742188 -33.007812 37.882812 -32.96875 38.03125 -32.9375 C 38.34375 -32.894531 38.632812 -32.816406 38.90625 -32.703125 C 39.1875 -32.597656 39.4375 -32.4375 39.65625 -32.21875 C 39.78125 -32.101562 39.863281 -31.957031 39.90625 -31.78125 C 39.957031 -31.613281 39.984375 -31.457031 39.984375 -31.3125 C 39.953125 -31.207031 39.890625 -31.078125 39.796875 -30.921875 C 39.703125 -30.773438 39.597656 -30.664062 39.484375 -30.59375 C 38.859375 -30.257812 38.234375 -30.242188 37.609375 -30.546875 C 36.585938 -31.015625 35.535156 -31.382812 34.453125 -31.65625 C 34.265625 -31.695312 34.101562 -31.734375 33.96875 -31.765625 C 24.394531 -34.335938 16.6875 -39.582031 10.84375 -47.5 C 10.757812 -47.625 10.679688 -47.742188 10.609375 -47.859375 C 10.492188 -48.117188 10.34375 -48.332031 10.15625 -48.5 C 9.96875 -48.664062 9.734375 -48.707031 9.453125 -48.625 C 9.222656 -48.59375 9.0625 -48.488281 8.96875 -48.3125 C 8.882812 -48.144531 8.816406 -47.953125 8.765625 -47.734375 C 8.722656 -47.578125 8.671875 -47.453125 8.609375 -47.359375 C 8.492188 -47.085938 8.398438 -46.804688 8.328125 -46.515625 C 8.296875 -46.398438 8.238281 -46.265625 8.15625 -46.109375 C 5.8125 -39.410156 4.601562 -32.695312 4.53125 -25.96875 C 4.457031 -19.25 5.425781 -12.503906 7.4375 -5.734375 C 8.132812 -3.316406 8.992188 -0.984375 10.015625 1.265625 C 11.035156 3.515625 12.273438 5.664062 13.734375 7.71875 C 15.441406 10.132812 17.566406 12.113281 20.109375 13.65625 C 23.765625 15.894531 27.597656 16.269531 31.609375 14.78125 C 33.929688 13.84375 36.054688 12.585938 37.984375 11.015625 C 39.847656 9.492188 41.523438 7.800781 43.015625 5.9375 C 44.910156 3.550781 46.578125 1.03125 48.015625 -1.625 C 49.453125 -4.28125 50.6875 -7.03125 51.71875 -9.875 Z M 51.71875 -9.875 "/></g></g></g><g fill="#231f20" fill-opacity="1"><g transform="translate(150.631514, 212.153511)"><g><path d="M 19.3125 -12.484375 C 20.09375 -12.671875 21.101562 -13.210938 22.34375 -14.109375 C 23.582031 -15.015625 24.140625 -15.035156 24.015625 -14.171875 C 23.898438 -13.304688 23.226562 -12.582031 22 -12 C 20.769531 -11.425781 19.640625 -11.015625 18.609375 -10.765625 C 18.335938 -10.679688 18.070312 -10.535156 17.8125 -10.328125 C 17.550781 -10.128906 17.382812 -9.90625 17.3125 -9.65625 C 17.125 -8.570312 16.753906 -7.5625 16.203125 -6.625 C 14.742188 -4.351562 12.675781 -3.457031 10 -3.9375 C 8.957031 -4.207031 8.285156 -4.722656 7.984375 -5.484375 C 7.691406 -6.242188 7.84375 -7.09375 8.4375 -8.03125 C 9.257812 -9.113281 10.28125 -9.914062 11.5 -10.4375 C 11.957031 -10.65625 12.375 -10.816406 12.75 -10.921875 C 12.9375 -11.003906 13.15625 -11.078125 13.40625 -11.140625 C 13.894531 -11.410156 14.15625 -11.925781 14.1875 -12.6875 C 14.226562 -13.457031 14.050781 -14.222656 13.65625 -14.984375 C 13.269531 -15.742188 12.726562 -16.265625 12.03125 -16.546875 C 11.34375 -16.828125 10.515625 -16.578125 9.546875 -15.796875 C 8.617188 -14.929688 7.914062 -13.921875 7.4375 -12.765625 C 6.320312 -10.460938 5.550781 -8.046875 5.125 -5.515625 C 4.382812 -1.046875 3.867188 3.421875 3.578125 7.890625 C 3.460938 9.972656 3.257812 12.039062 2.96875 14.09375 C 2.851562 14.957031 2.757812 15.835938 2.6875 16.734375 C 2.632812 17.023438 2.5625 17.320312 2.46875 17.625 C 2.3125 18.175781 1.894531 18.410156 1.21875 18.328125 C 0.519531 18.296875 0.148438 17.984375 0.109375 17.390625 C 0.0664062 16.765625 0.0664062 16.128906 0.109375 15.484375 C 0.109375 15.335938 0.109375 15.210938 0.109375 15.109375 C 0.148438 14.328125 0.191406 13.539062 0.234375 12.75 C 0.265625 11.34375 0.296875 9.945312 0.328125 8.5625 C 0.410156 2.90625 0.378906 -2.789062 0.234375 -8.53125 C 0.191406 -10.675781 0.148438 -12.800781 0.109375 -14.90625 C 0.109375 -15.125 0.109375 -15.34375 0.109375 -15.5625 C 0.0351562 -16.3125 0.0703125 -17.039062 0.21875 -17.75 C 0.375 -18.457031 0.84375 -18.863281 1.625 -18.96875 C 2.4375 -19.050781 2.9375 -18.675781 3.125 -17.84375 C 3.125 -17.78125 3.125 -17.707031 3.125 -17.625 C 3.394531 -16.03125 3.640625 -13.929688 3.859375 -11.328125 C 4.453125 -13.066406 5.195312 -14.46875 6.09375 -15.53125 C 6.988281 -16.601562 8.046875 -17.394531 9.265625 -17.90625 C 10.285156 -18.363281 11.332031 -18.546875 12.40625 -18.453125 C 13.476562 -18.359375 14.453125 -17.914062 15.328125 -17.125 C 16.210938 -16.34375 16.816406 -15.171875 17.140625 -13.609375 C 17.296875 -12.929688 17.503906 -12.53125 17.765625 -12.40625 C 18.023438 -12.28125 18.539062 -12.304688 19.3125 -12.484375 Z M 11.734375 -5.5625 C 12.410156 -5.9375 12.929688 -6.429688 13.296875 -7.046875 C 13.671875 -7.660156 13.867188 -8.203125 13.890625 -8.671875 C 13.910156 -9.140625 13.71875 -9.3125 13.3125 -9.1875 C 12.257812 -8.78125 11.535156 -8.25 11.140625 -7.59375 C 10.753906 -6.945312 10.625 -6.390625 10.75 -5.921875 C 10.875 -5.460938 11.203125 -5.34375 11.734375 -5.5625 Z M 11.734375 -5.5625 "/></g></g></g><g fill="#231f20" fill-opacity="1"><g transform="translate(173.151311, 212.153511)"><g><path d="M 24.875 -12.328125 C 26.320312 -13.929688 27.082031 -14.546875 27.15625 -14.171875 C 27.226562 -13.796875 26.914062 -12.925781 26.21875 -11.5625 C 25.53125 -10.195312 24.457031 -9.035156 23 -8.078125 C 21.9375 -7.410156 21.019531 -6.960938 20.25 -6.734375 C 19.476562 -6.515625 18.78125 -6.382812 18.15625 -6.34375 C 16.914062 -6.28125 15.96875 -6.632812 15.3125 -7.40625 C 14.664062 -8.1875 14.210938 -9.191406 13.953125 -10.421875 C 13.703125 -11.648438 13.519531 -12.914062 13.40625 -14.21875 C 13.289062 -15.050781 13.179688 -15.796875 13.078125 -16.453125 C 12.921875 -17.503906 12.617188 -18.082031 12.171875 -18.1875 C 11.722656 -18.300781 11.035156 -17.628906 10.109375 -16.171875 C 9.140625 -14.617188 8.289062 -12.898438 7.5625 -11.015625 C 6.832031 -9.140625 6.191406 -7.304688 5.640625 -5.515625 C 5.609375 -5.441406 5.570312 -5.347656 5.53125 -5.234375 C 5.414062 -4.972656 5.320312 -4.707031 5.25 -4.4375 C 5.03125 -3.695312 4.769531 -2.972656 4.46875 -2.265625 C 4.21875 -1.671875 3.78125 -1.28125 3.15625 -1.09375 C 2.539062 -0.90625 1.894531 -0.945312 1.21875 -1.21875 C 0.78125 -1.40625 0.484375 -1.71875 0.328125 -2.15625 C 0.109375 -2.832031 0.0351562 -3.519531 0.109375 -4.21875 C 0.109375 -4.300781 0.109375 -4.359375 0.109375 -4.390625 C 0.253906 -7.335938 0.273438 -12.238281 0.171875 -19.09375 C 0.0859375 -24.5625 0.046875 -30.441406 0.046875 -36.734375 C 0.046875 -43.035156 0.207031 -48.976562 0.53125 -54.5625 C 0.851562 -60.144531 1.40625 -64.613281 2.1875 -67.96875 C 2.519531 -69.1875 3.078125 -70.28125 3.859375 -71.25 C 4.640625 -72.226562 5.503906 -72.765625 6.453125 -72.859375 C 7.398438 -72.953125 8.285156 -72.304688 9.109375 -70.921875 C 9.671875 -69.734375 10.019531 -68.472656 10.15625 -67.140625 C 10.53125 -63.171875 10.195312 -57.082031 9.15625 -48.875 C 8.113281 -40.664062 7.023438 -33.476562 5.890625 -27.3125 C 4.753906 -21.15625 4.1875 -16.015625 4.1875 -11.890625 C 4.5625 -12.515625 4.9375 -13.179688 5.3125 -13.890625 C 5.832031 -14.941406 6.414062 -15.988281 7.0625 -17.03125 C 7.71875 -18.070312 8.488281 -18.953125 9.375 -19.671875 C 10.269531 -20.398438 11.351562 -20.859375 12.625 -21.046875 C 13.488281 -21.179688 14.363281 -21.117188 15.25 -20.859375 C 16.132812 -20.609375 16.726562 -19.992188 17.03125 -19.015625 C 17.40625 -17.304688 17.535156 -15.488281 17.421875 -13.5625 C 17.421875 -11.507812 17.773438 -10.210938 18.484375 -9.671875 C 19.191406 -9.128906 20.070312 -9.035156 21.125 -9.390625 C 22.1875 -9.742188 23.4375 -10.722656 24.875 -12.328125 Z M 5.921875 -64.828125 C 5.734375 -62.710938 5.519531 -59.175781 5.28125 -54.21875 C 5.039062 -49.269531 4.835938 -44.304688 4.671875 -39.328125 C 4.503906 -34.347656 4.421875 -30.210938 4.421875 -26.921875 C 4.828125 -29.898438 5.316406 -33.78125 5.890625 -38.5625 C 6.460938 -43.34375 6.972656 -48.257812 7.421875 -53.3125 C 7.867188 -58.375 8.09375 -62.175781 8.09375 -64.71875 C 8.0625 -66.0625 7.96875 -67.054688 7.8125 -67.703125 C 7.664062 -68.359375 7.414062 -68.59375 7.0625 -68.40625 C 6.707031 -68.21875 6.4375 -67.742188 6.25 -66.984375 C 6.0625 -66.222656 5.953125 -65.503906 5.921875 -64.828125 Z M 5.921875 -64.828125 "/></g></g></g><g fill="#231f20" fill-opacity="1"><g transform="translate(198.920864, 212.153511)"><g><path d="M 24.484375 -12.265625 C 24.847656 -12.484375 25.207031 -12.648438 25.5625 -12.765625 C 25.925781 -12.890625 26.160156 -12.882812 26.265625 -12.75 C 26.378906 -12.613281 26.234375 -12.304688 25.828125 -11.828125 C 24.554688 -10.378906 23.035156 -9.046875 21.265625 -7.828125 C 19.492188 -6.617188 17.675781 -5.601562 15.8125 -4.78125 C 14.363281 -4.113281 12.828125 -3.582031 11.203125 -3.1875 C 9.585938 -2.800781 7.988281 -2.71875 6.40625 -2.9375 C 4.820312 -3.164062 3.378906 -3.867188 2.078125 -5.046875 C 0.0976562 -6.878906 -0.71875 -9.113281 -0.375 -11.75 C -0.09375 -13.851562 0.71875 -15.632812 2.0625 -17.09375 C 3.414062 -18.5625 5.113281 -19.554688 7.15625 -20.078125 C 8.863281 -20.453125 10.578125 -20.5 12.296875 -20.21875 C 13.066406 -20.09375 13.773438 -19.828125 14.421875 -19.421875 C 15.015625 -18.960938 15.335938 -18.425781 15.390625 -17.8125 C 15.453125 -17.207031 15.222656 -16.628906 14.703125 -16.078125 C 13.617188 -15.109375 12.363281 -14.53125 10.9375 -14.34375 C 9.351562 -14.070312 7.753906 -13.90625 6.140625 -13.84375 C 5.367188 -13.84375 4.820312 -13.679688 4.5 -13.359375 C 4.1875 -13.035156 4.007812 -12.484375 3.96875 -11.703125 C 3.707031 -9.585938 4.382812 -7.863281 6 -6.53125 C 6.988281 -5.726562 8.195312 -5.382812 9.625 -5.5 C 11.0625 -5.625 12.582031 -6.007812 14.1875 -6.65625 C 15.800781 -7.3125 17.378906 -8.078125 18.921875 -8.953125 C 20.460938 -9.828125 21.847656 -10.648438 23.078125 -11.421875 C 23.609375 -11.765625 24.078125 -12.046875 24.484375 -12.265625 Z M 6.828125 -16.78125 C 6.828125 -16.75 6.800781 -16.734375 6.75 -16.734375 C 6.6875 -16.660156 6.597656 -16.578125 6.484375 -16.484375 C 6.378906 -16.398438 6.28125 -16.3125 6.1875 -16.21875 C 6.09375 -16.125 6.046875 -16.054688 6.046875 -16.015625 C 6.078125 -15.898438 6.378906 -15.867188 6.953125 -15.921875 C 7.535156 -15.984375 8.171875 -16.085938 8.859375 -16.234375 C 9.554688 -16.378906 10.132812 -16.570312 10.59375 -16.8125 C 11.0625 -17.0625 11.203125 -17.359375 11.015625 -17.703125 C 10.929688 -17.796875 10.828125 -17.878906 10.703125 -17.953125 C 10.578125 -18.035156 10.4375 -18.09375 10.28125 -18.125 C 9.601562 -18.125 8.984375 -17.992188 8.421875 -17.734375 C 7.867188 -17.472656 7.335938 -17.15625 6.828125 -16.78125 Z M 13.578125 -30.03125 C 13.765625 -30.320312 14.015625 -30.503906 14.328125 -30.578125 C 14.640625 -30.660156 14.96875 -30.679688 15.3125 -30.640625 C 15.375 -30.640625 15.429688 -30.640625 15.484375 -30.640625 C 15.617188 -30.609375 15.765625 -30.59375 15.921875 -30.59375 C 16.703125 -30.40625 17.140625 -30.140625 17.234375 -29.796875 C 17.328125 -29.460938 17.234375 -29.109375 16.953125 -28.734375 C 16.671875 -28.367188 16.367188 -28.039062 16.046875 -27.75 C 15.253906 -26.882812 14.484375 -25.894531 13.734375 -24.78125 C 13.078125 -23.851562 12.492188 -23.117188 11.984375 -22.578125 C 11.472656 -22.035156 11.09375 -21.96875 10.84375 -22.375 C 10.539062 -22.601562 10.378906 -22.863281 10.359375 -23.15625 C 10.335938 -23.457031 10.390625 -23.78125 10.515625 -24.125 C 10.734375 -25.082031 11.070312 -25.976562 11.53125 -26.8125 C 12 -27.65625 12.515625 -28.484375 13.078125 -29.296875 C 13.234375 -29.566406 13.398438 -29.8125 13.578125 -30.03125 Z M 13.578125 -30.03125 "/></g></g></g><g fill="#231f20" fill-opacity="1"><g transform="translate(223.497141, 212.153511)"><g><path d="M 18.328125 -11.828125 C 18.617188 -12.523438 18.929688 -12.875 19.265625 -12.875 C 19.609375 -12.875 19.722656 -12.523438 19.609375 -11.828125 C 19.046875 -10.109375 18.375 -8.457031 17.59375 -6.875 C 16.8125 -5.289062 15.753906 -3.867188 14.421875 -2.609375 C 13.410156 -1.597656 12.203125 -0.945312 10.796875 -0.65625 C 8.878906 -0.382812 7.296875 -0.613281 6.046875 -1.34375 C 4.804688 -2.070312 3.820312 -3.117188 3.09375 -4.484375 C 2.363281 -5.847656 1.820312 -7.335938 1.46875 -8.953125 C 1.113281 -10.566406 0.882812 -12.132812 0.78125 -13.65625 C 0.507812 -16.539062 0.3125 -20.328125 0.1875 -25.015625 C 0.0625 -29.703125 0.109375 -34.660156 0.328125 -39.890625 C 0.546875 -45.117188 1.054688 -49.96875 1.859375 -54.4375 C 2.671875 -58.90625 3.851562 -62.367188 5.40625 -64.828125 C 6.300781 -66.023438 7.34375 -66.628906 8.53125 -66.640625 C 9.726562 -66.660156 10.796875 -66.113281 11.734375 -65 C 12.359375 -64.132812 12.832031 -63.21875 13.15625 -62.25 C 13.476562 -61.289062 13.6875 -60.3125 13.78125 -59.3125 C 14.125 -55.875 14.082031 -52.242188 13.65625 -48.421875 C 13.238281 -44.609375 12.570312 -40.535156 11.65625 -36.203125 C 10.738281 -31.867188 9.644531 -28.050781 8.375 -24.75 C 7.101562 -21.457031 6.046875 -18.84375 5.203125 -16.90625 C 4.742188 -16.132812 4.578125 -14.957031 4.703125 -13.375 C 4.847656 -11.664062 5.171875 -9.878906 5.671875 -8.015625 C 6.171875 -6.160156 6.867188 -4.691406 7.765625 -3.609375 C 8.617188 -2.710938 9.566406 -2.429688 10.609375 -2.765625 C 11.660156 -3.109375 12.707031 -3.820312 13.75 -4.90625 C 14.789062 -5.988281 15.707031 -7.164062 16.5 -8.4375 C 17.300781 -9.71875 17.910156 -10.847656 18.328125 -11.828125 Z M 4.796875 -37.8125 C 4.691406 -36.6875 4.59375 -34.992188 4.5 -32.734375 C 4.414062 -30.484375 4.328125 -28.1875 4.234375 -25.84375 C 4.171875 -23.238281 4.097656 -21.207031 4.015625 -19.75 C 4.835938 -21.613281 5.800781 -24.320312 6.90625 -27.875 C 8.007812 -31.4375 9.015625 -35.628906 9.921875 -40.453125 C 10.828125 -45.273438 11.414062 -50.492188 11.6875 -56.109375 C 11.53125 -59.398438 11.132812 -61.628906 10.5 -62.796875 C 9.863281 -63.960938 9.171875 -64.0625 8.421875 -63.09375 C 7.679688 -62.132812 7.09375 -60.101562 6.65625 -57 C 5.976562 -51.875 5.453125 -46.738281 5.078125 -41.59375 C 4.972656 -40.320312 4.878906 -39.0625 4.796875 -37.8125 Z M 4.796875 -37.8125 "/></g></g></g><g fill="#231f20" fill-opacity="1"><g transform="translate(241.548524, 212.153511)"><g><path d="M 13.171875 -10.3125 C 12.648438 -9.226562 11.757812 -8.023438 10.5 -6.703125 C 9.238281 -5.378906 7.804688 -4.539062 6.203125 -4.1875 C 4.609375 -3.832031 3.082031 -4.382812 1.625 -5.84375 C 1.0625 -6.488281 0.648438 -7.226562 0.390625 -8.0625 C 0.128906 -8.894531 0.0351562 -9.71875 0.109375 -10.53125 C 0.109375 -10.757812 0.109375 -11.039062 0.109375 -11.375 C 0.109375 -12.238281 0.144531 -13.238281 0.21875 -14.375 C 0.289062 -15.507812 0.457031 -16.53125 0.71875 -17.4375 C 0.988281 -18.351562 1.398438 -18.90625 1.953125 -19.09375 C 3.566406 -19.5 4.441406 -18.941406 4.578125 -17.421875 C 4.578125 -16.929688 4.554688 -16.441406 4.515625 -15.953125 C 4.484375 -15.691406 4.46875 -15.453125 4.46875 -15.234375 C 4.4375 -14.523438 4.40625 -13.816406 4.375 -13.109375 C 4.375 -12.546875 4.347656 -11.984375 4.296875 -11.421875 C 4.253906 -8.972656 4.800781 -7.515625 5.9375 -7.046875 C 7.070312 -6.578125 8.367188 -7.070312 9.828125 -8.53125 C 11.285156 -9.988281 12.238281 -11.195312 12.6875 -12.15625 C 13.132812 -13.125 13.457031 -13.328125 13.65625 -12.765625 C 13.863281 -12.210938 13.703125 -11.394531 13.171875 -10.3125 Z M 4.234375 -24.328125 C 4.015625 -24.140625 3.75 -24.019531 3.4375 -23.96875 C 3.125 -23.914062 2.847656 -23.941406 2.609375 -24.046875 C 2.429688 -24.203125 2.316406 -24.398438 2.265625 -24.640625 C 2.210938 -24.890625 2.1875 -25.179688 2.1875 -25.515625 C 2.1875 -25.585938 2.203125 -25.65625 2.234375 -25.71875 C 2.265625 -26.019531 2.34375 -26.328125 2.46875 -26.640625 C 2.800781 -27.453125 3.503906 -27.820312 4.578125 -27.75 C 4.941406 -27.695312 5.226562 -27.546875 5.4375 -27.296875 C 5.65625 -27.046875 5.707031 -26.75 5.59375 -26.40625 C 5.332031 -25.570312 4.878906 -24.878906 4.234375 -24.328125 Z M 4.234375 -24.328125 "/></g></g></g><g fill="#231f20" fill-opacity="1"><g transform="translate(254.01439, 212.153511)"><g><path d="M 28.71875 -13.046875 C 28.257812 -11.628906 27.335938 -10 25.953125 -8.15625 C 24.578125 -6.320312 22.859375 -5.140625 20.796875 -4.609375 C 18.734375 -4.085938 16.945312 -4.160156 15.4375 -4.828125 C 13.925781 -5.503906 13.097656 -7.296875 12.953125 -10.203125 C 11.242188 -6.890625 9.613281 -4.765625 8.0625 -3.828125 C 6.507812 -2.898438 4.894531 -2.546875 3.21875 -2.765625 C 1.320312 -3.066406 0.0390625 -3.800781 -0.625 -4.96875 C -1.289062 -6.144531 -1.515625 -7.5 -1.296875 -9.03125 C -1.078125 -10.5625 -0.609375 -12.03125 0.109375 -13.4375 C 0.660156 -14.476562 1.429688 -15.445312 2.421875 -16.34375 C 3.410156 -17.25 4.445312 -17.953125 5.53125 -18.453125 C 6.875 -19.128906 8.222656 -19.453125 9.578125 -19.421875 C 10.929688 -19.390625 12.378906 -18.941406 13.921875 -18.078125 C 13.953125 -18.046875 13.96875 -18.082031 13.96875 -18.1875 C 13.96875 -18.332031 14.003906 -18.519531 14.078125 -18.75 C 14.148438 -18.976562 14.28125 -19.160156 14.46875 -19.296875 C 14.976562 -19.671875 15.578125 -19.859375 16.265625 -19.859375 C 16.960938 -19.859375 17.5 -19.507812 17.875 -18.8125 C 17.945312 -17.914062 17.851562 -16.773438 17.59375 -15.390625 C 17.039062 -12.335938 17.039062 -10.144531 17.59375 -8.8125 C 18.15625 -7.476562 19.140625 -6.851562 20.546875 -6.9375 C 21.960938 -7.03125 23.796875 -8.425781 26.046875 -11.125 C 28.296875 -13.832031 29.1875 -14.472656 28.71875 -13.046875 Z M 3.734375 -5.890625 C 4.515625 -5.328125 5.40625 -5.398438 6.40625 -6.109375 C 7.414062 -6.828125 8.382812 -7.835938 9.3125 -9.140625 C 10.25 -10.441406 11.035156 -11.742188 11.671875 -13.046875 C 12.304688 -14.347656 12.65625 -15.316406 12.71875 -15.953125 C 10.820312 -16.960938 9.195312 -17.132812 7.84375 -16.46875 C 6.488281 -15.800781 5.410156 -14.707031 4.609375 -13.1875 C 3.804688 -11.675781 3.328125 -10.203125 3.171875 -8.765625 C 3.023438 -7.335938 3.210938 -6.378906 3.734375 -5.890625 Z M 3.734375 -5.890625 "/></g></g></g><g clip-path="url(#84043b2845)"><g clip-path="url(#475200517e)"><g clip-path="url(#809842fca6)"><g clip-path="url(#568f84b74b)"><path fill="#231f20" d="M 122.582031 168.875 C 122.175781 168.445312 121.5 168.421875 121.066406 168.828125 C 120.636719 169.230469 120.613281 169.90625 121.019531 170.335938 C 123.539062 173.015625 125.761719 175.070312 128.132812 176.707031 L 128.199219 176.75 C 130.558594 178.375 133.042969 179.570312 136.070312 180.539062 C 155.464844 186.777344 181.070312 178.382812 206.035156 170.199219 C 240.738281 158.820312 274.175781 147.855469 286.398438 178.171875 C 286.617188 178.71875 287.242188 178.984375 287.792969 178.765625 C 288.34375 178.546875 288.609375 177.925781 288.386719 177.375 C 275.417969 145.210938 241.046875 156.476562 205.371094 168.175781 C 180.730469 176.253906 155.457031 184.539062 136.71875 178.519531 C 133.898438 177.609375 131.59375 176.503906 129.414062 175.003906 L 129.351562 174.957031 C 127.132812 173.421875 125.011719 171.460938 122.585938 168.878906 Z M 122.582031 168.875 " fill-opacity="1" fill-rule="evenodd"/></g></g></g></g><g clip-path="url(#0b00d5b757)"><g clip-path="url(#0350a4a2b2)"><g clip-path="url(#02fd914ff2)"><path fill="#231f20" d="M 185.96875 230.054688 C 184.164062 230.296875 183.789062 227.667969 185.59375 227.425781 C 185.769531 227.402344 185.945312 227.375 186.121094 227.351562 C 187.925781 227.109375 188.304688 229.738281 186.5 229.984375 C 186.320312 230.007812 186.144531 230.03125 185.96875 230.054688 Z M 203.609375 223.988281 C 203.683594 223.890625 203.761719 223.796875 203.835938 223.703125 C 204.941406 222.335938 202.695312 220.742188 201.589844 222.113281 C 201.511719 222.207031 201.4375 222.300781 201.359375 222.394531 C 200.257812 223.765625 202.503906 225.359375 203.609375 223.988281 Z M 220.941406 221.890625 C 222.390625 222.917969 224.105469 220.789062 222.65625 219.765625 C 221.210938 218.742188 219.496094 220.867188 220.941406 221.890625 Z M 165.6875 221.933594 C 165.863281 221.910156 166.039062 221.886719 166.214844 221.859375 C 168.019531 221.617188 167.644531 218.988281 165.839844 219.230469 C 165.660156 219.253906 165.484375 219.28125 165.308594 219.304688 C 163.503906 219.546875 163.882812 222.175781 165.6875 221.933594 Z M 195.542969 234.148438 C 195.644531 234.21875 195.742188 234.289062 195.84375 234.359375 C 196.726562 234.984375 198.160156 234.847656 198.816406 233.957031 C 199.46875 233.0625 199.359375 231.835938 198.414062 231.167969 C 198.3125 231.097656 198.214844 231.027344 198.113281 230.953125 C 197.234375 230.332031 195.796875 230.464844 195.144531 231.355469 C 194.488281 232.25 194.597656 233.476562 195.542969 234.148438 Z M 223.386719 212.429688 C 225.554688 213.964844 228.128906 210.777344 225.957031 209.238281 C 223.789062 207.703125 221.214844 210.890625 223.386719 212.429688 Z M 213.621094 218.902344 C 213.597656 218.738281 213.574219 218.574219 213.550781 218.40625 C 213.429688 217.558594 212.027344 217.75 212.148438 218.597656 C 212.171875 218.761719 212.195312 218.925781 212.222656 219.09375 C 212.34375 219.941406 213.742188 219.75 213.621094 218.902344 Z M 227.6875 205.339844 C 228.410156 205.851562 229.265625 204.789062 228.542969 204.277344 C 227.820312 203.765625 226.960938 204.828125 227.6875 205.339844 Z M 169.839844 218.734375 C 170.5625 219.246094 171.421875 218.183594 170.695312 217.671875 C 169.972656 217.160156 169.113281 218.222656 169.839844 218.734375 Z M 173.8125 222.492188 C 173.886719 222.398438 173.964844 222.304688 174.039062 222.210938 C 174.589844 221.523438 173.46875 220.730469 172.917969 221.414062 C 172.839844 221.507812 172.765625 221.601562 172.6875 221.699219 C 172.136719 222.382812 173.257812 223.179688 173.8125 222.492188 Z M 188.320312 234.933594 C 189.042969 235.445312 189.902344 234.382812 189.175781 233.871094 C 188.453125 233.359375 187.597656 234.421875 188.320312 234.933594 Z M 194.488281 227.277344 C 195.210938 227.789062 196.070312 226.722656 195.347656 226.210938 C 194.625 225.699219 193.765625 226.761719 194.488281 227.277344 Z M 177.828125 236.863281 C 178.550781 237.375 179.410156 236.3125 178.683594 235.796875 C 177.960938 235.285156 177.101562 236.347656 177.828125 236.863281 Z M 160.0625 226.125 C 160.140625 226.03125 160.214844 225.9375 160.292969 225.839844 C 160.84375 225.15625 159.71875 224.359375 159.167969 225.046875 C 159.09375 225.140625 159.015625 225.234375 158.941406 225.328125 C 158.386719 226.011719 159.511719 226.808594 160.0625 226.125 Z M 167.367188 225.894531 C 168.089844 226.40625 168.949219 225.34375 168.222656 224.832031 C 167.5 224.316406 166.644531 225.382812 167.367188 225.894531 Z M 182.074219 215.8125 C 182.796875 216.324219 183.65625 215.261719 182.929688 214.75 C 182.207031 214.238281 181.347656 215.300781 182.074219 215.8125 Z M 180.429688 223.113281 C 181.152344 223.625 182.011719 222.5625 181.285156 222.050781 C 180.5625 221.539062 179.707031 222.601562 180.429688 223.113281 Z M 226.382812 216.890625 C 227.105469 217.402344 227.964844 216.339844 227.238281 215.828125 C 226.515625 215.316406 225.660156 216.378906 226.382812 216.890625 Z M 226.382812 216.890625 " fill-opacity="1" fill-rule="nonzero"/></g></g></g><g fill="#231f20" fill-opacity="1"><g transform="translate(188.012365, 223.717764)"><g><path d="M 5.90625 -6.3125 L 3.53125 -6.3125 L 3.53125 0 L 2.578125 0 L 2.578125 -6.3125 L 0.21875 -6.3125 L 0.21875 -7.15625 L 5.90625 -7.15625 Z M 5.90625 -6.3125 "/></g></g></g><g fill="#231f20" fill-opacity="1"><g transform="translate(200.519981, 223.717764)"><g><path d="M 1.890625 0 L 0.890625 0 L 0.890625 -1 L 1.890625 -1 Z M 1.890625 0 "/></g></g></g><g fill="#231f20" fill-opacity="1"><g transform="translate(209.698912, 223.717764)"><g><path d="M 1.703125 -0.84375 L 5.234375 -0.84375 L 5.234375 0 L 0.75 0 L 0.75 -7.15625 L 1.703125 -7.15625 Z M 1.703125 -0.84375 "/></g></g></g><g fill="#231f20" fill-opacity="1"><g transform="translate(221.656754, 223.717764)"><g><path d="M 1.890625 0 L 0.890625 0 L 0.890625 -1 L 1.890625 -1 Z M 1.890625 0 "/></g></g></g></svg>